<svg xmlns="http://www.w3.org/2000/svg" width="1200" height="760" viewBox="0 0 1200 760"><rect width="1200" height="760" fill="#e9edf4"/><style>text{font-family:Segoe UI,Arial,sans-serif} .muted{fill:#64748b} .body{fill:#203047} .white{fill:white}</style><text x="42" y="52" font-size="20" fill="#52647d" font-weight="700">02 · CADASTRO DE USUÁRIO</text><rect x="45" y="84" width="1116" height="642" rx="16" fill="#d7deea"/><rect x="42" y="76" width="1116" height="642" rx="16" fill="#fff"/><text x="100" y="144" font-size="29" fill="#203047" font-weight="700">Criar conta</text><text x="100" y="173" font-size="16" fill="#64748b" font-weight="400">Preencha os dados para acessar o sistema.</text><line x1="100" y1="197" x2="1100" y2="197" stroke="#dce3ed"/><text x="100" y="239" font-size="15" fill="#40516b" font-weight="600">Nome completo</text><rect x="100" y="249" width="470" height="45" rx="8" fill="#fff" stroke="#cbd5e1" stroke-width="1"/><text x="114" y="277.5" font-size="15" fill="#8b98aa" font-weight="400">Ex.: Ana Silva</text><text x="630" y="239" font-size="15" fill="#40516b" font-weight="600">Nome de usuário</text><rect x="630" y="249" width="470" height="45" rx="8" fill="#fff" stroke="#cbd5e1" stroke-width="1"/><text x="644" y="277.5" font-size="15" fill="#8b98aa" font-weight="400">Ex.: ana.silva</text><text x="100" y="333" font-size="15" fill="#40516b" font-weight="600">E-mail</text><rect x="100" y="343" width="1000" height="45" rx="8" fill="#fff" stroke="#cbd5e1" stroke-width="1"/><text x="114" y="371.5" font-size="15" fill="#8b98aa" font-weight="400">Ex.: ana@exemplo.com</text><text x="100" y="427" font-size="15" fill="#40516b" font-weight="600">Senha</text><rect x="100" y="437" width="470" height="45" rx="8" fill="#fff" stroke="#cbd5e1" stroke-width="1"/><text x="114" y="465.5" font-size="15" fill="#8b98aa" font-weight="400">••••••••</text><text x="630" y="427" font-size="15" fill="#40516b" font-weight="600">Confirmar senha</text><rect x="630" y="437" width="470" height="45" rx="8" fill="#fff" stroke="#cbd5e1" stroke-width="1"/><text x="644" y="465.5" font-size="15" fill="#8b98aa" font-weight="400">••••••••</text><rect x="100" y="521" width="1000" height="44" rx="8" fill="#edf4ff"/><text x="118" y="549" font-size="15" fill="#36548b" font-weight="400">O nome de usuário e o e-mail devem ser únicos.</text><rect x="776" y="623" width="150" height="44" rx="9" fill="#ffffff" stroke="#cbd5e1" stroke-width="1"/><text x="851.0" y="651.0" font-size="16" fill="#000000" font-weight="600" text-anchor="middle">Voltar</text><rect x="942" y="623" width="158" height="44" rx="9" fill="#dce8ff" stroke="#b7c9e9" stroke-width="1"/><text x="1021.0" y="651.0" font-size="16" fill="#000000" font-weight="600" text-anchor="middle">Cadastrar</text></svg>