<svg xmlns="http://www.w3.org/2000/svg" width="1200" height="760" viewBox="0 0 1200 760"><rect width="1200" height="760" fill="#e9edf4"/><style>text{font-family:Segoe UI,Arial,sans-serif} .muted{fill:#64748b} .body{fill:#203047} .white{fill:white}</style><text x="42" y="52" font-size="20" fill="#52647d" font-weight="700">03 · TELA PRINCIPAL</text><rect x="45" y="84" width="1116" height="642" rx="16" fill="#d7deea"/><rect x="42" y="76" width="1116" height="642" rx="16" fill="#fff"/><rect x="42" y="76" width="1116" height="75" rx="16" fill="#fff"/><text x="78" y="123" font-size="24" fill="#274799" font-weight="700">TAREFAS</text><text x="865" y="122" font-size="15" fill="#40516b" font-weight="400">Ana Silva  ·  ana.silva</text><text x="1091" y="122" font-size="16" fill="#315ddc" font-weight="600">Sair</text><line x1="42" y1="151" x2="1158" y2="151" stroke="#dce3ed"/><rect x="42" y="152" width="245" height="566" rx="0" fill="#f5f7fb"/><text x="72" y="199" font-size="13" fill="#74829a" font-weight="700">NAVEGAÇÃO</text><rect x="58" y="224" width="213" height="42" rx="8" fill="#e7edff"/><text x="78" y="251" font-size="15" fill="#274799" font-weight="600">Visão geral</text><text x="78" y="306" font-size="15" fill="#485970" font-weight="400">Tarefas recebidas</text><text x="78" y="361" font-size="15" fill="#485970" font-weight="400">Tarefas criadas</text><text x="78" y="416" font-size="15" fill="#485970" font-weight="400">Categorias</text><text x="331" y="219" font-size="30" fill="#203047" font-weight="700">Visão geral</text><text x="331" y="252" font-size="16" fill="#64748b" font-weight="400">Bem-vinda, Ana! Acompanhe suas tarefas.</text><rect x="331" y="290" width="360" height="160" rx="12" fill="#edf4ff"/><text x="359" y="339" font-size="19" fill="#36548b" font-weight="600">Tarefas recebidas</text><text x="359" y="397" font-size="16" fill="#315ddc" font-weight="600">Abrir listagem  →</text><rect x="715" y="290" width="360" height="160" rx="12" fill="#f1edff"/><text x="743" y="339" font-size="19" fill="#5643a5" font-weight="600">Tarefas criadas</text><text x="743" y="397" font-size="16" fill="#315ddc" font-weight="600">Abrir listagem  →</text><text x="331" y="515" font-size="19" fill="#203047" font-weight="600">Acesso rápido</text><rect x="331" y="541" width="230" height="44" rx="9" fill="#dce8ff" stroke="#b7c9e9" stroke-width="1"/><text x="446.0" y="569.0" font-size="16" fill="#000000" font-weight="600" text-anchor="middle">+ Nova tarefa</text><rect x="580" y="541" width="230" height="44" rx="9" fill="#ffffff" stroke="#cbd5e1" stroke-width="1"/><text x="695.0" y="569.0" font-size="16" fill="#000000" font-weight="600" text-anchor="middle">Gerenciar categorias</text></svg>